<?xml version="1.0" standalone="no"?><!DOCTYPE svg PUBLIC "-//W3C//DTD SVG 1.1//EN" "http://www.w3.org/Graphics/SVG/1.1/DTD/svg11.dtd"><svg t="1752560207696" class="icon" viewBox="0 0 1024 1024" version="1.1" xmlns="http://www.w3.org/2000/svg" p-id="16175" xmlns:xlink="http://www.w3.org/1999/xlink" width="200" height="200"><path d="M905.75 132.3125H118.25c-31.02539063 0-56.25 25.13671875-56.25 56.25v506.25c0 31.02539063 25.22460938 56.25 56.25 56.25h274.21875c3.8671875 0 7.03125 3.1640625 7.03125 7.03125v73.828125c0 1.93359375-1.58203125 3.515625-3.515625 3.515625h-52.734375c-15.55664063 0-28.125 12.56835938-28.125 28.125v28.125h393.75v-28.125c0-15.55664063-12.56835938-28.125-28.125-28.125h-52.734375c-1.93359375 0-3.515625-1.58203125-3.515625-3.515625v-73.828125c0-3.8671875 3.1640625-7.03125 7.03125-7.03125h274.21875c31.02539063 0 56.25-25.22460938 56.25-56.25V188.5625c0-31.11328125-25.22460938-56.25-56.25-56.25zM568.25 831.921875c0 1.93359375-1.58203125 3.515625-3.515625 3.515625H459.265625c-1.93359375 0-3.515625-1.58203125-3.515625-3.515625v-45.703125c0-3.8671875 3.1640625-7.03125 7.03125-7.03125h98.4375c3.8671875 0 7.03125 3.1640625 7.03125 7.03125v45.703125z m337.5-151.171875c0 7.734375-6.328125 14.0625-14.0625 14.0625H132.3125c-7.734375 0-14.0625-6.328125-14.0625-14.0625v-38.671875c0-1.93359375 1.58203125-3.515625 3.515625-3.515625h780.46875c1.93359375 0 3.515625 1.58203125 3.515625 3.515625v38.671875z" fill="#333333" p-id="16176"></path></svg>