<?xml version="1.0" standalone="no"?><!DOCTYPE svg PUBLIC "-//W3C//DTD SVG 1.1//EN" "http://www.w3.org/Graphics/SVG/1.1/DTD/svg11.dtd"><svg t="1752560816008" class="icon" viewBox="0 0 1024 1024" version="1.1" xmlns="http://www.w3.org/2000/svg" p-id="20755" xmlns:xlink="http://www.w3.org/1999/xlink" width="200" height="200"><path d="M289.28 128C197.12 135.68 128 217.6 128 312.32v2.56c0 92.16 74.24 168.96 166.4 168.96h158.72c7.68 0 15.36-2.56 20.48-7.68 5.12-5.12 7.68-12.8 7.68-20.48V307.2c2.56-104.96-87.04-186.88-192-179.2z m430.08 0c-97.28 0-176.64 79.36-176.64 176.64v148.48c0 7.68 2.56 15.36 7.68 20.48 5.12 5.12 12.8 7.68 20.48 7.68h148.48c97.28 0 176.64-79.36 176.64-176.64C896 207.36 816.64 128 719.36 128zM128 719.36C128 816.64 207.36 896 304.64 896c99.84 0 176.64-84.48 176.64-181.76v-128c0-30.72-12.8-43.52-28.16-43.52H309.76C212.48 540.16 128 619.52 128 719.36z m583.68-179.2H568.32c-7.68 0-15.36 2.56-20.48 7.68-5.12 5.12-7.68 12.8-7.68 20.48V716.8c0 97.28 79.36 176.64 176.64 176.64 99.84 0 179.2-81.92 176.64-181.76 0-94.72-84.48-171.52-181.76-171.52z m0 0" fill="#333333" p-id="20756"></path></svg>