<?xml version="1.0" standalone="no"?><!DOCTYPE svg PUBLIC "-//W3C//DTD SVG 1.1//EN" "http://www.w3.org/Graphics/SVG/1.1/DTD/svg11.dtd"><svg t="1752560524888" class="icon" viewBox="0 0 1024 1024" version="1.1" xmlns="http://www.w3.org/2000/svg" p-id="9744" xmlns:xlink="http://www.w3.org/1999/xlink" width="200" height="200"><path d="M878.942 556.1h-725.014c-43.586 0-79.328 35.742-79.328 79.328v161.614c0 43.586 35.742 79.328 79.328 79.328h725.014c43.586 0 79.328-35.742 79.328-79.328v-161.742c0-43.586-35.742-79.2-79.328-79.2zM239.3 758.342c-24.042 0-43.586-18.9-43.586-42.3s19.542-42.3 43.586-42.3 43.586 18.9 43.586 42.3c0.128 23.4-19.414 42.3-43.586 42.3zM380.214 758.342c-24.042 0-43.586-18.9-43.586-42.3s19.542-42.3 43.586-42.3 43.586 18.9 43.586 42.3-19.414 42.3-43.586 42.3zM823.142 341.258c1.286-2.828 1.928-5.914 1.928-9.258v-218.828c0-12.472-10.158-22.628-22.628-22.628s-22.628 10.158-22.628 22.628v211.5h-551.314l-114.428 194.658h813.858l-104.786-178.072z" fill="#333333" p-id="9745"></path></svg>