<?xml version="1.0" standalone="no"?><!DOCTYPE svg PUBLIC "-//W3C//DTD SVG 1.1//EN" "http://www.w3.org/Graphics/SVG/1.1/DTD/svg11.dtd"><svg t="1752560636612" class="icon" viewBox="0 0 1024 1024" version="1.1" xmlns="http://www.w3.org/2000/svg" p-id="18024" xmlns:xlink="http://www.w3.org/1999/xlink" width="200" height="200"><path d="M831.14496 104.38144L199.0912 102.4a34.37568 34.37568 0 0 0-33.06496 24.448L35.84 560.74752v326.59968c0 18.9184 15.40096 34.2528 34.39616 34.2528h883.52768c18.9952 0 34.39616-15.3344 34.39616-34.2528V560.7424l-124.0576-431.58528a34.37568 34.37568 0 0 0-32.95744-24.7808zM988.16 615.6288H35.84v-49.35168h952.32v49.35168z m-441.088 95.87712h106.80832v106.32192h-106.8032v-106.32192z m185.3952 0h106.752v106.32192h-106.752v-106.32192zM478.07488 182.3232l-3.39456 53.77536h257.18784l0.6656 54.67648H471.29088l-3.5584 56.38656-166.2464-84.33664 176.5888-80.50176zM293.01248 394.99776h261.5552l2.32448-62.8224 175.64672 87.69024L550.16448 512l2.16064-57.22624H286.44864l6.56384-59.776z" fill="#333333" p-id="18025"></path></svg>