<?xml version="1.0" standalone="no"?><!DOCTYPE svg PUBLIC "-//W3C//DTD SVG 1.1//EN" "http://www.w3.org/Graphics/SVG/1.1/DTD/svg11.dtd"><svg t="1752560005169" class="icon" viewBox="0 0 1024 1024" version="1.1" xmlns="http://www.w3.org/2000/svg" p-id="17165" xmlns:xlink="http://www.w3.org/1999/xlink" width="200" height="200"><path d="M0 118.749867v746.973866L176.5376 1024V0L0 118.749867z m36.386133 698.4704c-7.2704-1.706667-11.605333-8.465067-9.728-15.0528a13.0048 13.0048 0 0 1 9.728-8.874667c7.236267 1.706667 11.605333 8.465067 9.693867 15.0528a13.0048 13.0048 0 0 1-9.693867 8.874667z m0-42.222934c-6.382933-0.853333-10.922667-6.144-10.205866-11.946666-0.853333-5.802667 3.618133-11.093333 9.966933-11.8784a12.629333 12.629333 0 0 1 0.238933 0c6.212267 0.750933 10.6496 5.905067 9.966934 11.605333 0.682667 5.768533-3.6864 11.025067-9.966934 11.946667v0.273066z m0-42.461866c-7.236267-1.6384-11.605333-8.328533-9.8304-14.916267a12.970667 12.970667 0 0 1 9.8304-8.942933c7.236267 1.672533 11.605333 8.328533 9.796267 14.916266a12.970667 12.970667 0 0 1-9.796267 8.942934z m0-42.461867c-7.236267-1.6384-11.605333-8.328533-9.8304-14.916267a12.970667 12.970667 0 0 1 9.8304-8.942933c7.236267 1.672533 11.605333 8.328533 9.796267 14.916267a12.970667 12.970667 0 0 1-9.796267 8.942933z m0-42.1888c-7.236267-1.672533-11.605333-8.328533-9.8304-14.916267a12.970667 12.970667 0 0 1 9.8304-8.942933c7.236267 1.6384 11.605333 8.328533 9.796267 14.916267a12.970667 12.970667 0 0 1-9.796267 8.942933z m0-42.222933c-7.236267-1.6384-11.605333-8.328533-9.8304-14.916267a12.970667 12.970667 0 0 1 9.8304-8.9088c7.236267 1.6384 11.605333 8.328533 9.796267 14.882133a12.970667 12.970667 0 0 1-9.796267 8.942934z m0-42.1888c-7.236267-1.672533-11.605333-8.328533-9.8304-14.916267a12.970667 12.970667 0 0 1 9.8304-8.942933c7.236267 1.672533 11.605333 8.328533 9.796267 14.916266a12.970667 12.970667 0 0 1-9.796267 8.942934z m0-42.461867c-7.236267-1.672533-11.605333-8.328533-9.8304-14.916267a12.970667 12.970667 0 0 1 9.8304-8.942933c7.236267 1.6384 11.605333 8.328533 9.796267 14.916267a12.970667 12.970667 0 0 1-9.796267 8.942933z m0-42.222933c-7.236267-1.6384-11.605333-8.328533-9.8304-14.916267a12.970667 12.970667 0 0 1 9.8304-8.9088c7.236267 1.6384 11.605333 8.328533 9.796267 14.882133a12.970667 12.970667 0 0 1-9.796267 8.942934z m0-42.1888c-7.236267-1.672533-11.605333-8.328533-9.8304-14.916267a12.970667 12.970667 0 0 1 9.8304-8.942933c7.236267 1.672533 11.605333 8.328533 9.796267 14.916266a12.970667 12.970667 0 0 1-9.796267 8.942934z m0-42.222934c-7.236267-1.6384-11.605333-8.328533-9.8304-14.916266a12.970667 12.970667 0 0 1 9.8304-8.9088c7.236267 1.6384 11.605333 8.328533 9.796267 14.916266a12.970667 12.970667 0 0 1-9.796267 8.9088z m0-42.1888c-7.2704-1.706667-11.605333-8.465067-9.728-15.0528a13.0048 13.0048 0 0 1 9.728-8.874666c7.236267 1.7408 11.605333 8.465067 9.693867 15.086933a13.0048 13.0048 0 0 1-9.693867 8.840533z m0-42.1888c-7.2704-1.706667-11.605333-8.465067-9.728-15.0528a13.0048 13.0048 0 0 1 9.728-8.874666c7.236267 1.706667 11.605333 8.465067 9.693867 15.0528a13.0048 13.0048 0 0 1-9.693867 8.874666z m0-42.496C29.149867 265.898667 24.7808 259.1744 26.555733 252.586667a12.970667 12.970667 0 0 1 9.8304-8.9088c7.236267 1.6384 11.605333 8.328533 9.796267 14.916266a12.970667 12.970667 0 0 1-9.796267 8.9088z m0-42.1888C29.7984 224.768 24.9856 219.4432 25.6 213.469867a10.0352 10.0352 0 0 1 0.580267-2.4576c-0.682667-5.802667 3.822933-11.093333 10.205866-11.946667 6.280533 0.955733 10.6496 6.178133 9.966934 11.946667 0.6144 5.7344-3.754667 10.922667-9.966934 11.810133v2.491733z m32.085334 612.898134c-7.236267-1.672533-11.605333-8.328533-9.796267-14.916267a12.970667 12.970667 0 0 1 9.796267-8.942933c7.236267 1.672533 11.605333 8.328533 9.796266 14.916266a12.970667 12.970667 0 0 1-9.796266 8.942934z m0-42.222934c-7.236267-1.6384-11.605333-8.328533-9.796267-14.916266a12.970667 12.970667 0 0 1 9.796267-8.9088c7.236267 1.6384 11.605333 8.328533 9.796266 14.916266a12.970667 12.970667 0 0 1-9.796266 8.9088z m0-42.1888c-7.236267-1.6384-11.605333-8.328533-9.796267-14.916266a12.970667 12.970667 0 0 1 9.796267-8.942934c7.236267 1.672533 11.605333 8.328533 9.796266 14.916267a12.970667 12.970667 0 0 1-9.796266 8.942933z m0-42.222933c-7.236267-1.6384-11.605333-8.2944-9.796267-14.882133a12.970667 12.970667 0 0 1 9.796267-8.942934c7.236267 1.6384 11.605333 8.328533 9.796266 14.916267a12.970667 12.970667 0 0 1-9.796266 8.9088z m0-42.1888c-7.236267-1.6384-11.605333-8.328533-9.796267-14.916267a12.970667 12.970667 0 0 1 9.796267-8.9088c7.236267 1.6384 11.605333 8.328533 9.796266 14.882134a12.970667 12.970667 0 0 1-9.796266 8.942933z m0-42.1888c-7.236267-1.672533-11.605333-8.328533-9.796267-14.916267a12.970667 12.970667 0 0 1 9.796267-8.942933c7.236267 1.6384 11.605333 8.328533 9.796266 14.916267a12.970667 12.970667 0 0 1-9.796266 8.942933z m0-42.222933c-7.236267-1.570133-11.639467-8.192-9.898667-14.779734a12.9024 12.9024 0 0 1 9.898667-9.0112c7.202133 1.604267 11.639467 8.192 9.898666 14.779734a12.9024 12.9024 0 0 1-9.898666 9.0112z m0-42.1888c-7.236267-1.672533-11.605333-8.328533-9.796267-14.916267a12.970667 12.970667 0 0 1 9.796267-8.942933c7.236267 1.672533 11.605333 8.328533 9.796266 14.916266a12.970667 12.970667 0 0 1-9.796266 8.942934z m0-42.222934c-7.236267-1.6384-11.605333-8.328533-9.796267-14.882133a12.970667 12.970667 0 0 1 9.796267-8.942933c7.236267 1.6384 11.605333 8.328533 9.796266 14.916266a12.970667 12.970667 0 0 1-9.796266 8.9088z m0-42.1888c-7.236267-1.6384-11.605333-8.328533-9.796267-14.916266a12.970667 12.970667 0 0 1 9.796267-8.942934c7.236267 1.672533 11.605333 8.328533 9.796266 14.916267a12.970667 12.970667 0 0 1-9.796266 8.942933z m0-42.1888c-7.236267-1.672533-11.605333-8.328533-9.796267-14.916266a12.970667 12.970667 0 0 1 9.796267-8.942934c7.236267 1.6384 11.605333 8.328533 9.796266 14.916267a12.970667 12.970667 0 0 1-9.796266 8.942933z m0-42.222933c-7.236267-1.570133-11.639467-8.192-9.898667-14.779733a12.9024 12.9024 0 0 1 9.898667-9.0112c7.202133 1.604267 11.639467 8.192 9.898666 14.779733a12.9024 12.9024 0 0 1-9.898666 9.0112z m0-42.1888c-7.236267-1.672533-11.605333-8.328533-9.796267-14.916267a12.970667 12.970667 0 0 1 9.796267-8.942933c7.236267 1.672533 11.605333 8.328533 9.796266 14.916267a12.970667 12.970667 0 0 1-9.796266 8.942933z m0-42.222933c-7.236267-1.6384-11.605333-8.328533-9.796267-14.882134a12.970667 12.970667 0 0 1 9.796267-8.942933c7.236267 1.6384 11.605333 8.328533 9.796266 14.916267a12.970667 12.970667 0 0 1-9.796266 8.9088z m0-42.1888c-6.382933-0.853333-10.922667-6.144-10.205867-11.946667-0.682667-5.870933 3.822933-11.127467 10.205867-11.946667 6.382933 0.8192 10.888533 6.075733 10.205866 11.946667a12.0832 12.0832 0 0 1-10.24 6.0416v5.905067z m0-42.461867c-6.382933-0.8192-10.888533-6.109867-10.205867-11.946667-0.682667-5.802667 3.822933-11.093333 10.205867-11.912533 6.382933 0.8192 10.888533 6.109867 10.205866 11.946667a12.049067 12.049067 0 0 1-10.24 6.007466v5.905067z m32.017066 648.874667c-7.236267-1.672533-11.605333-8.328533-9.796266-14.916267a12.970667 12.970667 0 0 1 9.796266-8.942933c7.236267 1.6384 11.605333 8.328533 9.8304 14.916266a12.970667 12.970667 0 0 1-9.8304 8.942934z m0-42.461867c-7.202133-1.604267-11.639467-8.192-9.898666-14.779733a12.9024 12.9024 0 0 1 9.898666-9.045334c7.236267 1.604267 11.6736 8.192 9.898667 14.779734a12.9024 12.9024 0 0 1-9.898667 9.045333z m0-42.222933c-7.236267-1.6384-11.605333-8.328533-9.796266-14.916267a12.970667 12.970667 0 0 1 9.796266-8.9088c7.236267 1.6384 11.605333 8.328533 9.8304 14.882133a12.970667 12.970667 0 0 1-9.8304 8.942934z m0-42.461867c-7.236267-1.6384-11.605333-8.328533-9.796266-14.916267a12.970667 12.970667 0 0 1 9.796266-8.942933c7.236267 1.672533 11.605333 8.328533 9.8304 14.916267a12.970667 12.970667 0 0 1-9.8304 8.942933z m0-42.1888c-7.202133-1.604267-11.639467-8.192-9.898666-14.779733a12.9024 12.9024 0 0 1 9.898666-9.0112c7.236267 1.570133 11.6736 8.192 9.898667 14.7456a12.9024 12.9024 0 0 1-9.898667 9.045333z m0-42.222933c-7.236267-1.570133-11.707733-8.226133-9.9328-14.813867a12.970667 12.970667 0 0 1 9.9328-9.079467c7.2704 1.706667 11.605333 8.465067 9.728 15.018667a13.0048 13.0048 0 0 1-9.728 8.874667z m0-42.1888c-7.236267-1.672533-11.605333-8.328533-9.796266-14.916267a12.970667 12.970667 0 0 1 9.796266-8.942933c7.236267 1.672533 11.605333 8.328533 9.8304 14.916266a12.970667 12.970667 0 0 1-9.8304 8.942934z m0-42.222934c-7.236267-1.570133-11.707733-8.192-9.9328-14.813866a12.970667 12.970667 0 0 1 9.9328-9.079467c7.2704 1.706667 11.605333 8.465067 9.728 15.0528a13.0048 13.0048 0 0 1-9.728 8.874667z m0-42.1888c-7.236267-1.604267-11.707733-8.226133-9.9328-14.848a12.970667 12.970667 0 0 1 9.9328-9.045333c7.2704 1.706667 11.605333 8.430933 9.728 15.018667a13.0048 13.0048 0 0 1-9.728 8.874666z m0-42.1888c-6.075733 2.389333-13.141333-0.170667-15.7696-5.700266-2.491733-5.256533-0.1024-11.400533 5.5296-14.062934-0.853333-5.768533 3.618133-11.0592 9.966934-11.810133l0.273066-0.034133c6.382933 0.648533 10.922667 5.870933 10.24 11.639466l-0.034133 0.2048c0.682667 5.8368-3.857067 11.093333-10.205867 11.946667v7.816533z m0-42.496c-7.236267-1.6384-11.605333-8.328533-9.796266-14.916266a12.970667 12.970667 0 0 1 9.796266-8.9088c7.236267 1.6384 11.605333 8.328533 9.8304 14.916266a12.970667 12.970667 0 0 1-9.8304 8.9088z m0-42.1888c-7.236267-1.6384-11.605333-8.328533-9.796266-14.916266a12.970667 12.970667 0 0 1 9.796266-8.942934c7.236267 1.672533 11.605333 8.328533 9.8304 14.916267a12.970667 12.970667 0 0 1-9.8304 8.942933z m0-42.1888c-7.202133-1.604267-11.639467-8.192-9.898666-14.779733a12.9024 12.9024 0 0 1 9.898666-9.0112c7.236267 1.570133 11.6736 8.192 9.898667 14.7456a12.9024 12.9024 0 0 1-9.898667 9.045333z m0-42.222933c-7.236267-1.6384-11.605333-8.328533-9.796266-14.916267a12.970667 12.970667 0 0 1 9.796266-8.9088c7.236267 1.6384 11.605333 8.328533 9.8304 14.882134a12.970667 12.970667 0 0 1-9.8304 8.942933z m0-42.1888c-7.236267-1.672533-11.605333-8.328533-9.796266-14.916267a12.970667 12.970667 0 0 1 9.796266-8.942933c7.236267 1.672533 11.605333 8.328533 9.8304 14.916267a12.970667 12.970667 0 0 1-9.8304 8.942933z m0-42.461867c-6.382933-0.8192-10.922667-6.075733-10.24-11.946666-0.853333-5.768533 3.618133-11.0592 9.966934-11.844267h0.273066c6.382933 0.648533 10.922667 5.870933 10.24 11.639467l-0.034133 0.2048a12.629333 12.629333 0 0 1-10.205867 3.2768v8.669866z m0-42.222933c-6.382933-0.785067-10.922667-6.075733-10.24-11.946667-0.682667-5.802667 3.857067-11.127467 10.24-11.946666 6.382933 0.853333 10.922667 6.144 10.205867 11.946666a12.6976 12.6976 0 0 1-10.205867 2.935467v9.0112zM599.825067 197.870933V19.797333L211.8656 0v1024l387.959467-19.797333V234.052267H269.312v-36.181334h330.513067zM526.336 77.482667c19.626667 0 35.498667 15.530667 35.498667 34.679466 0 19.114667-15.872 34.645333-35.498667 34.645334a35.089067 35.089067 0 0 1-35.5328-34.645334c-0.034133-19.114667 15.803733-34.645333 35.4304-34.679466h0.1024z m302.626133 168.618666V89.634133L639.658667 72.362667V971.434667l189.269333-17.373867V277.9136h-161.314133v-31.607467l161.314133-0.238933z m-35.908266-105.506133c9.557333 0 17.3056 13.585067 17.3056 30.4128s-7.748267 30.378667-17.3056 30.378667-17.3056-13.585067-17.3056-30.378667c0-16.759467 7.748267-30.651733 17.3056-30.651733v0.238933zM1024 303.5136V169.472l-162.235733-14.916267v770.730667L1024 910.370133V330.786133h-138.274133v-27.272533H1024z m-30.788267-90.624c8.192 0 14.848 11.6736 14.848 26.077867s-6.656 26.043733-14.848 26.043733c-8.157867 0-14.848-11.639467-14.848-26.043733s6.656-26.077867 14.848-26.077867z" fill="#2C2C2C" p-id="17166"></path></svg>